Coordinates
version=1
nRows=15
nColumns=19
inDegrees=yes

Units are S.I. units (second, meters, Newtons, ...)
If the header above contains a line with 'inDegrees', this indicates whether rotational values are in degrees (yes) or radians (no).

endheader
time	pelvis_tilt	pelvis_list	pelvis_rotation	pelvis_tx	pelvis_ty	pelvis_tz	hip_flexion_r	hip_adduction_r	hip_rotation_r	knee_angle_r	knee_angle_r_beta	ankle_angle_r	hip_flexion_l	hip_adduction_l	hip_rotation_l	knee_angle_l	knee_angle_l_beta	ankle_angle_l
     15.18000000	     -4.41283735	     -5.06226502	     -0.35392598	      2.12716707	      0.96184214	      0.98541713	     21.90036544	      6.77321817	     -5.40724775	     16.53650814	      0.28861651	      2.21011171	     -3.67287434	     -7.64211586	     -1.77621317	     55.93990689	      0.97633556	    -18.85092178
     15.18666667	     -3.49754096	     -5.50513858	     -0.69755387	      2.12671393	      0.95785928	      0.98601196	     21.45911055	      7.22642026	     -6.05514846	     19.11356354	      0.33359462	      3.04395670	     -3.66953850	     -8.04940736	     -1.57626580	     58.70308042	      1.02456203	    -17.69668677
     15.19333333	     -3.50971088	     -5.63873190	     -0.97832364	      2.12578996	      0.95263819	      0.98644345	     22.23637448	      7.24573977	     -6.73845872	     22.26387374	      0.38857790	      4.25264754	     -2.41192589	     -8.07627675	     -1.07162534	     61.69850960	      1.07684214	    -16.71993665
     15.20000000	     -2.55379838	     -6.05222399	     -1.27772243	      2.12495196	      0.94844906	      0.98687020	     21.72773164	      7.63129941	     -7.05924942	     25.07854979	      0.43770327	      5.73796642	     -2.28281130	     -8.48605088	     -0.92063752	     64.47088004	      1.12522913	    -15.73820331
     15.20666667	     -2.63325676	     -5.95386127	     -1.59199498	      2.12353268	      0.94315724	      0.98729820	     22.51115160	      7.45655532	     -7.17934436	     28.29973049	      0.49392347	      7.43369158	     -0.78121510	     -8.26303523	     -0.46195837	     67.39911644	      1.17633649	    -14.93535028
     15.21333333	     -1.73861378	     -6.27682367	     -1.84085481	      2.12228022	      0.93917880	      0.98766955	     21.88352142	      7.79638800	     -7.07837624	     30.90151346	      0.53933315	      9.32403638	     -0.40482322	     -8.60132722	     -0.28073367	     70.06987175	      1.22294997	    -14.19989027
     15.22000000	     -1.86041954	     -6.04771376	     -2.14228189	      2.12047997	      0.93425144	      0.98810559	     22.48797594	      7.58307512	     -6.73117655	     33.77486483	      0.58948260	     11.31032894	      1.29281874	     -8.25761234	      0.14273926	     72.82074300	      1.27096173	    -13.50616418
     15.22666667	     -1.13166794	     -6.26201401	     -2.37232941	      2.11883902	      0.93064482	      0.98860143	     21.81173939	      7.86799139	     -6.39084255	     35.99230238	      0.62818418	     13.33519169	      2.00244848	     -8.49457997	      0.37268088	     75.30782881	      1.31436957	    -12.79339525
     15.23333333	     -1.31394791	     -6.04523823	     -2.58634532	      2.11687827	      0.92660055	      0.98893699	     22.07009870	      7.74381466	     -5.81375043	     38.09828884	      0.66494058	     15.19312930	      3.89394447	     -8.21388539	      0.78764628	     77.76862910	      1.35731863	    -12.17312686
     15.24000000	     -0.70199676	     -6.12777714	     -2.73183899	      2.11510627	      0.92393063	      0.98937162	     21.13552582	      7.91782558	     -5.33864096	     39.60567461	      0.69124942	     17.03536866	      4.84925533	     -8.33506555	      1.04707014	     79.91011640	      1.39469464	    -11.50266224
     15.24666667	     -0.92581219	     -5.93239229	     -2.84826295	      2.11313085	      0.92084254	      0.98976131	     21.04630955	      7.79924120	     -4.87675610	     40.98381364	      0.71530249	     18.64965000	      6.85654376	     -8.08762880	      1.52022174	     81.99149199	      1.43102149	    -10.77485384
     15.25333333	     -0.52014022	     -5.91357149	     -2.95279786	      2.11143553	      0.91907032	      0.99023319	     19.95379520	      7.85766115	     -4.43405406	     41.80257734	      0.72959261	     20.16764576	      8.08317499	     -8.11019763	      1.78958700	     83.71325056	      1.46107185	     -9.99933074
     15.26000000	     -0.16045414	     -5.83433620	     -3.05944414	      2.10968010	      0.91788535	      0.99077379	     18.74999134	      7.87371809	     -3.90956285	     42.30089509	      0.73828990	     21.29141740	      9.38090399	     -8.04658564	      2.06617564	     85.20156272	      1.48704780	     -9.35568812
     15.26666667	     -0.00403116	     -5.70298868	     -3.10617524	      2.10824082	      0.91688634	      0.99128356	     17.57711274	      7.79135161	     -3.54246634	     42.49686185	      0.74171016	     22.52424253	     10.87423877	     -7.98685452	      2.29670129	     86.46172430	      1.50904177	     -8.43528481
     15.27333333	     -0.11860328	     -5.54913899	     -3.06893100	      2.10705686	      0.91619925	      0.99173783	     16.51529381	      7.63259174	     -3.38083848	     42.35258982	      0.73919214	     23.53101431	     12.65706223	     -7.89851993	      2.59101805	     87.48295000	      1.52686552	     -7.41495932
